<?xml version="1.0" encoding="utf-8"?>
<!-- Generator: Adobe Illustrator 29.7.1, SVG Export Plug-In . SVG Version: 9.03 Build 0)  -->
<svg version="1.1" baseProfile="basic" id="圖層_1"
	 xmlns="http://www.w3.org/2000/svg" xmlns:xlink="http://www.w3.org/1999/xlink" x="0px" y="0px" viewBox="0 0 276.4 282.9"
	 xml:space="preserve">
<style type="text/css">
	.st0{fill:#88BD43;}
</style>
<g>
	<path class="st0" d="M138.2,279.7C62,279.7,0,217.8,0,141.6C0,65.4,62,3.4,138.2,3.4c35.6,0,69.4,13.6,95.3,38.2
		c25.7,24.5,40.9,57.5,42.7,92.9c0.1,2.4,0.2,4.8,0.2,7.1c0,15.8-2.7,31.3-7.9,46.1c-5.1,14.3-12.5,27.6-21.9,39.6
		c-9.4,11.8-20.5,22-33.2,30.2c-12.9,8.4-26.9,14.5-41.8,18.2C160.7,278.4,149.5,279.7,138.2,279.7z M138.2,31.2
		c-60.8,0-110.3,49.5-110.3,110.3s49.5,110.3,110.3,110.3c9,0,18-1.1,26.7-3.3c49.3-12.3,83.7-56.3,83.7-107.1c0-1.9,0-3.8-0.1-5.7
		C245.4,77.2,197,31.2,138.2,31.2z"/>
	<path class="st0" d="M118.5,204.7c-4.2,0-8.4-1.6-11.6-4.8l-46.7-46.7c-6.4-6.4-6.4-16.8,0-23.2c6.4-6.4,16.8-6.4,23.2,0l35.1,35.1
		l75.1-75.1c6.4-6.4,16.8-6.4,23.2,0c6.4,6.4,6.4,16.8,0,23.2l-86.7,86.7C126.9,203.1,122.7,204.7,118.5,204.7z"/>
</g>
</svg>
